HIERARCHY
ROOT Hips
{
	OFFSET 0.00 0.00 0.00
	CHANNELS 6 Xposition Yposition Zposition Xrotation Yrotation Zrotation
	JOINT Spine
	{
		OFFSET 0.00000 7.50895 0.00000
		CHANNELS 3 Xrotation Yrotation Zrotation
		JOINT Head
		{
			OFFSET 0.00000 13.86115 0.00000
			CHANNELS 3 Xrotation Yrotation Zrotation
			End Site
			{
				OFFSET 0.00000 4.52755 0.00000
			}
		}
		JOINT LeftShoulder
		{
			OFFSET 0.00000 8.20478 0.00000
			CHANNELS 3 Xrotation Yrotation Zrotation
			JOINT LeftArm
			{
				OFFSET 6.63596 0.00000 0.00000
				CHANNELS 3 Xrotation Yrotation Zrotation
				JOINT LeftForeArm
				{
					OFFSET 10.27422 0.00000 0.00000
					CHANNELS 3 Yrotation Zrotation Xrotation
					JOINT LeftHand
					{
						OFFSET 8.52215 0.00000 0.00000
						CHANNELS 3 Xrotation Yrotation Zrotation
						JOINT LeftHandThumb1
						{
							OFFSET 0.00000 0.00000 0.00000
							CHANNELS 3 Xrotation Zrotation Yrotation
							End Site
							{
								OFFSET 0.00000 0.00000 3.93700
							}
						}
						End Site
						{
							OFFSET 3.93700 0.00000 0.00000
						}
					}
				}
			}
		}
		JOINT RightShoulder
		{
			OFFSET 0.00000 8.20478 0.00000
			CHANNELS 3 Xrotation Yrotation Zrotation
			JOINT RightArm
			{
				OFFSET -6.63596 0.00000 0.00000
				CHANNELS 3 Xrotation Yrotation Zrotation
				JOINT RightForeArm
				{
					OFFSET -10.27422 0.00000 0.00000
					CHANNELS 3 Yrotation Zrotation Xrotation
					JOINT RightHand
					{
						OFFSET -8.52215 0.00000 0.00000
						CHANNELS 3 Xrotation Yrotation Zrotation
						JOINT RightHandThumb1
						{
							OFFSET 0.00000 0.00000 0.00000
							CHANNELS 3 Xrotation Zrotation Yrotation
							End Site
							{
								OFFSET 0.00000 0.00000 3.93700
							}
						}
						End Site
						{
							OFFSET -3.93700 0.00000 0.00000
						}
					}
				}
			}
		}
	}
	JOINT LeftUpLeg
	{
		OFFSET 3.00056 0.00000 0.00000
		CHANNELS 3 Xrotation Yrotation Zrotation
		JOINT LeftLeg
		{
			OFFSET 0.00000 -16.49085 0.00000
			CHANNELS 3 Xrotation Yrotation Zrotation
			JOINT LeftFoot
			{
				OFFSET 0.00000 -14.55658 0.00000
				CHANNELS 3 Xrotation Yrotation Zrotation
				JOINT LeftToeBase
				{
					OFFSET 0.00000 -1.25038 4.66650
					CHANNELS 3 Xrotation Yrotation Zrotation
					End Site
					{
						OFFSET 0.00000 0.00000 2.95275
					}
				}
			}
		}
	}
	JOINT RightUpLeg
	{
		OFFSET -3.00056 0.00000 0.00000
		CHANNELS 3 Xrotation Yrotation Zrotation
		JOINT RightLeg
		{
			OFFSET 0.00000 -16.49085 0.00000
			CHANNELS 3 Xrotation Yrotation Zrotation
			JOINT RightFoot
			{
				OFFSET 0.00000 -14.55658 0.00000
				CHANNELS 3 Xrotation Yrotation Zrotation
				JOINT RightToeBase
				{
					OFFSET 0.00000 -1.25038 4.66650
					CHANNELS 3 Xrotation Yrotation Zrotation
					End Site
					{
						OFFSET 0.00000 0.00000 2.95275
					}
				}
			}
		}
	}
}
MOTION
Frames: 15
Frame Time: 0.008333
 -6.4833 32.8166 -4.2428 8.3734 3.3167 -0.9018 -12.6015 -0.0875 3.4683 -11.8000 9.1770 9.3231 9.9499 8.9405 15.1275 -67.4946 32.3578 -34.3403 -103.8943 -0.0000 -47.4922 1.4307 10.1360 -8.0775 33.1476 -0.0000 26.2537 -16.4779 -12.4278 -19.4658 13.0844 35.2870 87.0027 22.8091 0.0000 16.2210 0.3027 -2.4711 6.9860 32.8623 0.0000 -24.3270 -3.2342 10.8787 4.7288 -1.7314 0.0000 -0.0000 -6.9377 10.8555 -17.0180 11.8444 -0.0000 -0.0000 -5.2454 -8.9520 -2.5663 2.3888 0.0000 -0.0000 -8.8312 -0.6362 -15.8720 0.8081 0.0000 -0.0000
 -6.4788 32.8158 -4.2375 8.4265 3.3344 -0.9168 -12.6262 0.0287 3.5115 -11.9681 9.1465 9.4088 10.1882 9.2172 15.1197 -67.8562 32.6597 -33.7619 -104.0315 -0.0000 -47.4718 1.4358 10.2560 -8.0131 33.1476 -0.0000 26.2537 -16.4908 -12.5265 -19.4553 13.0772 35.3161 86.9976 22.7395 0.0000 16.2014 0.3073 -2.4690 7.0980 32.8623 0.0000 -24.3270 -3.2830 10.8392 4.7326 -1.7184 -0.0000 0.0000 -6.9674 10.8754 -16.9880 11.8336 0.0000 -0.0000 -5.2873 -8.9423 -2.5656 2.4032 -0.0000 0.0000 -8.8307 -0.6790 -15.9823 0.7079 -0.0000 -0.0000
 -6.4744 32.8153 -4.2296 8.4478 3.3644 -0.9352 -12.6176 0.0930 3.5594 -12.1127 9.1385 9.4832 10.3390 9.4864 15.1213 -68.1503 33.0200 -33.1793 -104.1702 -0.0000 -47.4375 1.4502 10.2757 -8.0776 33.1476 -0.0000 26.2537 -16.5267 -12.5221 -19.4292 13.1424 35.3041 86.9850 22.6740 0.0000 16.1514 0.3054 -2.4662 7.0614 32.8623 0.0000 -24.3270 -3.2930 10.8106 4.7384 -1.7190 -0.0000 -0.0000 -6.9894 10.8858 -16.9700 11.7860 -0.0000 -0.0000 -5.2919 -8.9788 -2.5557 2.3994 0.0000 0.0000 -8.8550 -0.6531 -15.8332 0.8280 -0.0000 0.0000
 -6.4707 32.8146 -4.2225 8.4998 3.3869 -0.9470 -12.6450 0.2248 3.5997 -12.2696 9.0724 9.5325 10.5188 9.6567 15.1564 -68.4464 33.4462 -32.5509 -104.3238 -0.0000 -47.3544 1.4283 10.1612 -8.0446 33.1476 -0.0000 26.2537 -16.5829 -12.6049 -19.4515 13.1987 35.2327 87.0136 22.6339 0.0000 16.2216 0.3092 -2.4855 7.0924 32.8623 0.0000 -24.3270 -3.3351 10.7824 4.7403 -1.7155 -0.0000 -0.0000 -7.0096 10.8891 -16.9748 11.8354 0.0000 -0.0000 -5.3259 -8.9883 -2.5556 2.3988 -0.0000 0.0000 -8.8883 -0.6646 -15.7916 0.9068 -0.0000 -0.0000
 -6.4659 32.8138 -4.2157 8.5243 3.4049 -0.9533 -12.6392 0.3436 3.6307 -12.4147 9.0425 9.6146 10.5951 9.8242 15.2236 -68.6476 33.9189 -31.9688 -104.5064 -0.0000 -47.2925 1.4231 10.2081 -7.9798 33.1476 -0.0000 26.2537 -16.5993 -12.6927 -19.4642 13.1398 35.2760 87.0593 22.4947 0.0000 16.1926 0.3060 -2.4473 7.1289 32.8623 0.0000 -24.3270 -3.3571 10.7933 4.7356 -1.7010 0.0000 0.0000 -7.0286 10.8565 -16.9672 11.7835 -0.0000 -0.0000 -5.3374 -8.9797 -2.5596 2.4072 0.0000 -0.0000 -8.8447 -0.7077 -16.0073 0.6903 0.0000 -0.0000
 -6.4610 32.8134 -4.2089 8.5585 3.4302 -0.9642 -12.6439 0.4441 3.6554 -12.5571 8.9764 9.6792 10.7058 10.0217 15.3069 -68.8734 34.4157 -31.4068 -104.7038 -0.0000 -47.3433 1.4309 10.2393 -7.9990 33.1476 -0.0000 26.2537 -16.6198 -12.7569 -19.4573 13.1458 35.2795 87.0748 22.4222 0.0000 16.1964 0.3073 -2.4657 7.1061 32.8623 0.0000 -24.3270 -3.3826 10.7691 4.7345 -1.6962 0.0000 0.0000 -7.0467 10.8590 -16.9245 11.7666 0.0000 0.0000 -5.3574 -9.0090 -2.5580 2.4019 0.0000 -0.0000 -8.8655 -0.6900 -15.8671 0.7715 -0.0000 0.0000
 -6.4559 32.8128 -4.2025 8.5631 3.4469 -0.9688 -12.6157 0.5365 3.6771 -12.6778 8.9080 9.7430 10.7878 10.2038 15.3477 -69.0653 34.8415 -30.8196 -104.9059 -0.0000 -47.3371 1.4242 10.2937 -7.9210 33.1476 -0.0000 26.2537 -16.5804 -12.7761 -19.4223 13.1177 35.2610 87.0886 22.3624 0.0000 16.1720 0.3044 -2.4369 7.1222 32.8623 0.0000 -24.3270 -3.3775 10.7509 4.7290 -1.6892 0.0000 0.0000 -7.0801 10.8577 -16.8652 11.7734 -0.0000 0.0000 -5.3487 -8.9836 -2.5633 2.4109 0.0000 0.0000 -8.9106 -0.7407 -15.8227 0.9096 0.0000 0.0000
 -6.4503 32.8120 -4.1953 8.5766 3.4779 -0.9612 -12.5935 0.6221 3.6751 -12.8122 8.8324 9.8056 10.9342 10.4130 15.3915 -69.3285 35.2768 -30.2579 -105.0805 -0.0000 -47.3481 1.3940 10.2478 -7.7886 33.1476 -0.0000 26.2537 -16.5798 -12.8089 -19.4082 13.1230 35.2315 87.1103 22.3301 0.0000 16.1712 0.3071 -2.4707 7.0874 32.8623 0.0000 -24.3270 -3.3897 10.7631 4.7065 -1.6714 -0.0000 -0.0000 -7.1151 10.8298 -16.8345 11.8506 -0.0000 -0.0000 -5.3563 -8.9868 -2.5836 2.4362 -0.0000 0.0000 -8.8879 -0.7771 -16.0332 0.7422 0.0000 -0.0000
 -6.4461 32.8117 -4.1888 8.6124 3.5058 -0.9711 -12.5948 0.7348 3.7029 -12.9540 8.7161 9.8121 11.0777 10.6293 15.3967 -69.5439 35.6212 -29.7576 -105.2168 -0.0000 -47.3075 1.3522 10.1913 -7.5992 33.1476 -0.0000 26.2537 -16.5843 -12.9078 -19.4414 13.0935 35.2419 87.1511 22.3029 0.0000 16.2259 0.3085 -2.4789 7.0968 32.8623 0.0000 -24.3270 -3.4175 10.7411 4.7045 -1.6671 0.0000 0.0000 -7.1188 10.8278 -16.8491 11.7603 -0.0000 -0.0000 -5.3699 -8.9697 -2.5836 2.4214 -0.0000 0.0000 -8.9237 -0.8047 -15.8501 0.8847 0.0000 0.0000
 -6.4409 32.8109 -4.1807 8.6349 3.5485 -0.9759 -12.5819 0.8244 3.7242 -13.1008 8.6007 9.8207 11.3102 10.9142 15.3596 -69.8845 35.9540 -29.2927 -105.3949 -0.0000 -47.4566 1.3805 10.3228 -7.6593 33.1476 -0.0000 26.2537 -16.6072 -12.9487 -19.4628 13.1208 35.2091 87.1871 22.3041 0.0000 16.2799 0.3158 -2.5443 7.0776 32.8623 0.0000 -24.3270 -3.4303 10.7164 4.6968 -1.6626 -0.0000 -0.0000 -7.1361 10.8040 -16.8109 11.7446 -0.0000 -0.0000 -5.3892 -9.0205 -2.5942 2.4558 0.0000 -0.0000 -8.9728 -0.8024 -15.8127 0.9330 -0.0000 -0.0000
 -6.4379 32.8099 -4.1738 8.6466 3.5762 -0.9791 -12.5537 0.9606 3.7208 -13.2468 8.4174 9.8551 11.4821 11.1453 15.3749 -70.1950 36.3046 -28.8415 -105.5546 -0.0000 -47.3089 1.3647 10.5505 -7.4130 33.1476 -0.0000 26.2537 -16.6395 -12.9948 -19.4633 13.1826 35.1527 87.2100 22.3249 0.0000 16.3065 0.3224 -2.6145 7.0321 32.8623 0.0000 -24.3270 -3.4317 10.6865 4.6941 -1.6574 0.0000 0.0000 -7.1627 10.8205 -16.8224 11.7517 0.0000 0.0000 -5.3641 -8.9869 -2.5982 2.4215 -0.0000 -0.0000 -8.9187 -0.8735 -15.9914 0.7185 0.0000 0.0000
 -6.4352 32.8093 -4.1672 8.6626 3.6142 -1.0001 -12.5360 1.0859 3.7375 -13.3788 8.2197 9.8759 11.6045 11.3422 15.4071 -70.3868 36.6742 -28.4205 -105.7467 -0.0000 -47.2806 1.3888 10.3968 -7.6513 33.1476 -0.0000 26.2537 -16.6322 -13.0841 -19.4644 13.1807 35.1682 87.2134 22.3049 0.0000 16.2704 0.3135 -2.5341 7.0557 32.8623 0.0000 -24.3270 -3.4388 10.6453 4.7070 -1.6617 -0.0000 -0.0000 -7.1771 10.8113 -16.7855 11.7595 0.0000 -0.0000 -5.3751 -9.0401 -2.5844 2.4433 0.0000 0.0000 -8.9768 -0.8596 -15.8234 0.8953 -0.0000 0.0000
 -6.4319 32.8085 -4.1598 8.6688 3.6534 -1.0071 -12.5013 1.1774 3.7400 -13.5265 8.0559 9.8876 11.7082 11.5767 15.4038 -70.5742 36.9688 -28.0195 -105.9129 -0.0000 -47.2311 1.3691 10.4765 -7.4878 33.1476 -0.0000 26.2537 -16.6700 -13.1054 -19.4672 13.2411 35.1761 87.2243 22.3141 0.0000 16.2386 0.3062 -2.4789 7.0436 32.8623 0.0000 -24.3270 -3.4356 10.6161 4.7061 -1.6602 -0.0000 -0.0000 -7.1916 10.8186 -16.8118 11.7983 -0.0000 -0.0000 -5.3525 -9.0487 -2.5861 2.4222 -0.0000 0.0000 -8.9598 -0.8722 -15.8366 0.8156 -0.0000 -0.0000
 -6.4283 32.8077 -4.1537 8.6875 3.6986 -1.0100 -12.4825 1.2819 3.7376 -13.6573 7.8760 9.8749 11.8385 11.8248 15.3904 -70.7618 37.2197 -27.6711 -106.0065 -0.0000 -46.8793 1.3848 10.3716 -7.6480 33.1476 -0.0000 26.2537 -16.6721 -13.0994 -19.4680 13.3084 35.1178 87.2451 22.3665 0.0000 16.2920 0.3057 -2.4770 7.0375 32.8623 0.0000 -24.3270 -3.4449 10.5685 4.6968 -1.6606 0.0000 0.0000 -7.2017 10.8181 -16.8146 11.7472 -0.0000 0.0000 -5.3499 -9.0585 -2.5931 2.4132 -0.0000 -0.0000 -8.9790 -0.9016 -15.8391 0.8536 0.0000 0.0000
 -6.4258 32.8072 -4.1480 8.7050 3.7429 -1.0204 -12.4775 1.4311 3.7282 -13.7414 7.6296 9.8830 11.9832 12.0127 15.4189 -70.9093 37.4906 -27.3576 -106.2013 -0.0000 -46.7430 1.3677 10.5699 -7.4156 33.1476 -0.0000 26.2537 -16.5897 -13.1695 -19.4499 13.2884 35.1091 87.2516 22.4215 0.0000 16.3295 0.3189 -2.5706 7.0742 32.8623 0.0000 -24.3270 -3.4623 10.5507 4.7007 -1.6516 0.0000 -0.0000 -7.2188 10.7970 -16.8101 11.7272 -0.0000 -0.0000 -5.3557 -9.0845 -2.5928 2.4269 0.0000 0.0000 -9.0014 -0.9273 -15.8035 0.8629 -0.0000 0.0000
